<svg width="190" height="26" viewBox="0 0 190 26" fill="none" xmlns="http://www.w3.org/2000/svg">
<path d="M9.67 10.86L20.555 25H16.67L7.64 13.1H7.465L3.58 17.125V25H0.395V0.57H3.58V13.065H3.685L15.48 0.57H19.645L9.67 10.86ZM38.8923 16.075V17.195H25.3823C25.5689 18.8283 26.1756 20.1 27.2023 21.01C28.2289 21.92 29.7806 22.375 31.8573 22.375C33.9573 22.375 35.8939 21.7917 37.6673 20.625H37.8423V23.705C35.8823 24.8017 33.5723 25.35 30.9123 25.35C28.2756 25.35 26.1523 24.545 24.5423 22.935C22.9556 21.3017 22.1623 19.1083 22.1623 16.355C22.1623 13.5783 22.8739 11.2917 24.2973 9.495C25.7206 7.69833 27.7973 6.8 30.5273 6.8C33.2573 6.8 35.3339 7.69833 36.7573 9.495C38.1806 11.2917 38.8923 13.485 38.8923 16.075ZM25.3823 14.605H35.7073C35.6139 12.925 35.0423 11.6533 33.9923 10.79C32.9656 9.92667 31.8106 9.495 30.5273 9.495C29.2439 9.495 28.0889 9.92667 27.0623 10.79C26.0356 11.6533 25.4756 12.925 25.3823 14.605ZM43.4882 8.13C45.5182 7.24333 47.6882 6.8 49.9982 6.8C52.3315 6.8 54.1165 7.47667 55.3532 8.83C56.5899 10.1833 57.2082 11.805 57.2082 13.695V25H54.4082L54.0232 22.76H53.9182C52.2382 24.4867 50.0799 25.35 47.4432 25.35C45.8565 25.35 44.5032 24.8717 43.3832 23.915C42.2865 22.9583 41.7382 21.6517 41.7382 19.995C41.7382 18.3383 42.4149 16.9967 43.7682 15.97C45.1449 14.9433 47.1515 14.43 49.7882 14.43H54.0232V14.15C54.0232 12.61 53.6382 11.5017 52.8682 10.825C52.1215 10.1483 50.8149 9.81 48.9482 9.81C47.0815 9.81 45.3315 10.2067 43.6982 11H43.4882V8.13ZM54.0232 19.925V16.985H50.2082C46.6849 16.985 44.9232 17.9183 44.9232 19.785C44.9232 21.6283 46.1599 22.55 48.6332 22.55C49.6599 22.55 50.6515 22.305 51.6082 21.815C52.5649 21.3017 53.3699 20.6717 54.0232 19.925ZM75.5023 7.15V10.125L65.3873 21.92V22.025H75.5023V25H61.4323V22.06L71.6873 10.265V10.125H61.7473V7.15H75.5023ZM78.9681 16.075C78.9681 13.2983 79.7848 11.0583 81.4181 9.355C83.0514 7.65167 85.2098 6.8 87.8931 6.8C90.5998 6.8 92.7698 7.65167 94.4031 9.355C96.0598 11.0583 96.8881 13.2983 96.8881 16.075C96.8881 18.8517 96.0598 21.0917 94.4031 22.795C92.7698 24.4983 90.5998 25.35 87.8931 25.35C85.2098 25.35 83.0514 24.4983 81.4181 22.795C79.7848 21.0917 78.9681 18.8517 78.9681 16.075ZM83.8681 20.87C85.0348 21.92 86.3881 22.445 87.9281 22.445C89.4681 22.445 90.8098 21.92 91.9531 20.87C93.1198 19.7967 93.7031 18.1983 93.7031 16.075C93.7031 13.9283 93.1198 12.33 91.9531 11.28C90.8098 10.23 89.4681 9.705 87.9281 9.705C86.3881 9.705 85.0348 10.23 83.8681 11.28C82.7248 12.33 82.1531 13.9283 82.1531 16.075C82.1531 18.1983 82.7248 19.7967 83.8681 20.87ZM120.107 0.57H123.292V25H119.372L105.232 4.875H105.162V25H101.977V0.57H105.897L120.002 20.66H120.107V0.57ZM128.631 25V10.7812H132.371C133.901 10.7812 135.057 11.0938 135.838 11.7188C136.626 12.3372 137.02 13.2389 137.02 14.4238C137.02 15.2832 136.801 15.9961 136.365 16.5625C135.929 17.1289 135.314 17.4902 134.52 17.6465C135.418 17.7637 136.167 18.1543 136.766 18.8184C137.365 19.4759 137.664 20.2311 137.664 21.084C137.664 22.2949 137.27 23.252 136.482 23.9551C135.701 24.6517 134.611 25 133.211 25H128.631ZM129.158 17.9785V24.4727H133.27C134.474 24.4727 135.418 24.1764 136.102 23.584C136.792 22.985 137.137 22.1582 137.137 21.1035C137.137 20.2051 136.805 19.4661 136.141 18.8867C135.477 18.3008 134.588 17.998 133.475 17.9785H129.158ZM129.158 17.4512H132.566C133.862 17.4512 134.839 17.2038 135.496 16.709C136.154 16.2077 136.482 15.4329 136.482 14.3848C136.482 12.3665 135.151 11.3411 132.488 11.3086H129.158V17.4512ZM150.77 18.9551C150.77 20.1855 150.548 21.276 150.105 22.2266C149.669 23.1706 149.044 23.903 148.23 24.4238C147.417 24.9382 146.479 25.1953 145.418 25.1953C143.816 25.1953 142.521 24.6257 141.531 23.4863C140.542 22.347 140.047 20.8105 140.047 18.877V16.8262C140.047 15.6022 140.265 14.515 140.701 13.5645C141.144 12.6139 141.772 11.8815 142.586 11.3672C143.406 10.8464 144.344 10.5859 145.398 10.5859C146.46 10.5859 147.397 10.8464 148.211 11.3672C149.031 11.8815 149.663 12.6172 150.105 13.5742C150.548 14.5247 150.77 15.6087 150.77 16.8262V18.9551ZM150.242 16.8066C150.242 15.0879 149.806 13.7109 148.934 12.6758C148.061 11.6341 146.883 11.1133 145.398 11.1133C143.934 11.1133 142.765 11.6309 141.893 12.666C141.02 13.6947 140.584 15.0977 140.584 16.875V18.9551C140.584 20.0879 140.779 21.0905 141.17 21.9629C141.567 22.8288 142.13 23.4961 142.859 23.9648C143.589 24.4336 144.441 24.668 145.418 24.668C146.902 24.668 148.077 24.1504 148.943 23.1152C149.809 22.0801 150.242 20.6673 150.242 18.877V16.8066ZM164.09 18.9551C164.09 20.1855 163.868 21.276 163.426 22.2266C162.99 23.1706 162.365 23.903 161.551 24.4238C160.737 24.9382 159.799 25.1953 158.738 25.1953C157.137 25.1953 155.841 24.6257 154.852 23.4863C153.862 22.347 153.367 20.8105 153.367 18.877V16.8262C153.367 15.6022 153.585 14.515 154.021 13.5645C154.464 12.6139 155.092 11.8815 155.906 11.3672C156.727 10.8464 157.664 10.5859 158.719 10.5859C159.78 10.5859 160.717 10.8464 161.531 11.3672C162.352 11.8815 162.983 12.6172 163.426 13.5742C163.868 14.5247 164.09 15.6087 164.09 16.8262V18.9551ZM163.562 16.8066C163.562 15.0879 163.126 13.7109 162.254 12.6758C161.382 11.6341 160.203 11.1133 158.719 11.1133C157.254 11.1133 156.085 11.6309 155.213 12.666C154.34 13.6947 153.904 15.0977 153.904 16.875V18.9551C153.904 20.0879 154.1 21.0905 154.49 21.9629C154.887 22.8288 155.451 23.4961 156.18 23.9648C156.909 24.4336 157.762 24.668 158.738 24.668C160.223 24.668 161.398 24.1504 162.264 23.1152C163.13 22.0801 163.562 20.6673 163.562 18.877V16.8066ZM170.145 17.5195L167.869 19.6191V25H167.342V10.7812H167.869V19.0039L170.213 16.709L176.111 10.7812H176.873L170.535 17.1582L177.361 25H176.678L170.145 17.5195ZM188.553 21.5918C188.553 20.9863 188.41 20.4753 188.123 20.0586C187.843 19.6354 187.397 19.2643 186.785 18.9453C186.18 18.6198 185.262 18.2878 184.031 17.9492C182.801 17.6107 181.876 17.2689 181.258 16.9238C180.646 16.5788 180.197 16.1784 179.91 15.7227C179.624 15.2669 179.48 14.7135 179.48 14.0625C179.48 13.0273 179.917 12.1908 180.789 11.5527C181.661 10.9082 182.798 10.5859 184.197 10.5859C185.109 10.5859 185.926 10.765 186.648 11.123C187.378 11.4746 187.941 11.9727 188.338 12.6172C188.735 13.2552 188.934 13.9779 188.934 14.7852H188.406C188.406 13.724 188.016 12.8483 187.234 12.1582C186.453 11.4616 185.441 11.1133 184.197 11.1133C182.947 11.1133 181.935 11.3932 181.16 11.9531C180.392 12.5065 180.008 13.2031 180.008 14.043C180.008 14.8958 180.343 15.5827 181.014 16.1035C181.684 16.6243 182.791 17.0866 184.334 17.4902C185.877 17.8874 187.007 18.3496 187.723 18.877C188.634 19.5475 189.09 20.446 189.09 21.5723C189.09 22.2884 188.888 22.9232 188.484 23.4766C188.081 24.0234 187.508 24.4466 186.766 24.7461C186.023 25.0456 185.19 25.1953 184.266 25.1953C183.237 25.1953 182.312 25.026 181.492 24.6875C180.672 24.3424 180.053 23.8542 179.637 23.2227C179.227 22.5911 179.021 21.8457 179.021 20.9863H179.549C179.549 22.1517 179.985 23.0566 180.857 23.7012C181.73 24.3457 182.866 24.668 184.266 24.668C185.509 24.668 186.535 24.3848 187.342 23.8184C188.149 23.2454 188.553 22.5033 188.553 21.5918Z" fill="white"/>
</svg>
